<svg width="200" height="200" viewBox="0 0 200 200" fill="none" xmlns="http://www.w3.org/2000/svg">
<path d="M54.1667 91.6667L100 16.6667L145.833 91.6667H54.1667ZM145.833 183.333C135.417 183.333 126.561 179.686 119.267 172.392C111.972 165.097 108.328 156.244 108.333 145.833C108.333 135.417 111.981 126.561 119.275 119.267C126.569 111.972 135.422 108.328 145.833 108.333C156.25 108.333 165.106 111.981 172.4 119.275C179.694 126.569 183.339 135.422 183.333 145.833C183.333 156.25 179.686 165.106 172.392 172.4C165.097 179.694 156.244 183.339 145.833 183.333ZM25 179.167V112.5H91.6667V179.167H25ZM145.833 166.667C151.667 166.667 156.597 164.653 160.625 160.625C164.653 156.597 166.667 151.667 166.667 145.833C166.667 140 164.653 135.069 160.625 131.042C156.597 127.014 151.667 125 145.833 125C140 125 135.069 127.014 131.042 131.042C127.014 135.069 125 140 125 145.833C125 151.667 127.014 156.597 131.042 160.625C135.069 164.653 140 166.667 145.833 166.667ZM41.6667 162.5H75V129.167H41.6667V162.5ZM83.75 75H116.25L100 48.75L83.75 75Z" fill="black"/>
</svg>
