<svg width="200" height="200" viewBox="0 0 200 200" fill="none" xmlns="http://www.w3.org/2000/svg">
<path d="M106.583 175L25 93.4167V110.083C25 114.5 26.75 118.75 29.9167 121.833L94.8333 186.75C101.333 193.25 111.917 193.25 118.417 186.75L170.167 135C176.667 128.5 176.667 117.917 170.167 111.417L106.583 175Z" fill="black"/>
<path d="M94.8333 145.083C98.0833 148.333 102.333 150 106.583 150C110.833 150 115.083 148.333 118.333 145.083L170.083 93.3333C176.583 86.8333 176.583 76.25 170.083 69.75L105.167 4.83333C102.083 1.75 97.8333 0 93.4167 0H41.6667C32.5 0 25 7.5 25 16.6667V68.4167C25 72.8333 26.75 77.0833 29.9167 80.1667L94.8333 145.083ZM41.6667 16.6667H93.4167L158.333 81.5833L106.583 133.333L41.6667 68.4167V16.6667Z" fill="black"/>
<path d="M60.4167 45.8333C66.1696 45.8333 70.8333 41.1696 70.8333 35.4167C70.8333 29.6637 66.1696 25 60.4167 25C54.6637 25 50 29.6637 50 35.4167C50 41.1696 54.6637 45.8333 60.4167 45.8333Z" fill="black"/>
</svg>
